<svg id="Calque_1" data-name="Calque 1" xmlns="http://www.w3.org/2000/svg" xmlns:xlink="http://www.w3.org/1999/xlink" width="290.24" height="285.11" viewBox="0 0 290.24 285.11"><defs><style>.cls-1{fill:url(#Dégradé_sans_nom_10);}.cls-2{fill:url(#Dégradé_sans_nom_7);}.cls-3{fill:url(#Dégradé_sans_nom_4);}.cls-4{fill:url(#Dégradé_sans_nom_4-2);}.cls-5{fill:url(#Dégradé_sans_nom_4-3);}.cls-6{fill:url(#Dégradé_sans_nom_12);}.cls-7{fill:none;}.cls-8{fill:#e75540;}.cls-9{opacity:0.75;}.cls-10{clip-path:url(#clip-path);}.cls-11{clip-path:url(#clip-path-2);}.cls-12{mask:url(#mask);}.cls-13{fill:url(#Dégradé_sans_nom_8);}.cls-14{fill:#f7b61a;}.cls-15{opacity:0.85;}.cls-16{clip-path:url(#clip-path-3);}.cls-17{clip-path:url(#clip-path-4);}.cls-18{mask:url(#mask-2);}.cls-19{fill:url(#Dégradé_sans_nom_6);}.cls-20{fill:#1e181a;}.cls-21{clip-path:url(#clip-path-5);}.cls-22{clip-path:url(#clip-path-6);}.cls-23{mask:url(#mask-3);}.cls-24{fill:url(#Dégradé_sans_nom_9);}.cls-25{clip-path:url(#clip-path-7);}.cls-26{clip-path:url(#clip-path-8);}.cls-27{mask:url(#mask-4);}.cls-28{fill:url(#Dégradé_sans_nom_9-2);}.cls-29{clip-path:url(#clip-path-9);}.cls-30{clip-path:url(#clip-path-10);}.cls-31{mask:url(#mask-5);}.cls-32{fill:url(#Dégradé_sans_nom_9-3);}.cls-33{clip-path:url(#clip-path-11);}.cls-34{mask:url(#mask-6);}.cls-35{fill:url(#Dégradé_sans_nom_11);}</style><linearGradient id="Dégradé_sans_nom_10" x1="-48.98" y1="279.31" x2="-47.09" y2="279.31" gradientTransform="matrix(0, -27.48, -27.48, 0, 7765.43, -1170.13)" gradientUnits="userSpaceOnUse"><stop offset="0" stop-color="#fff"/><stop offset="0.06" stop-color="#dadada"/><stop offset="0.16" stop-color="#a7a7a7"/><stop offset="0.26" stop-color="#7b7b7b"/><stop offset="0.37" stop-color="#555"/><stop offset="0.48" stop-color="#363636"/><stop offset="0.59" stop-color="#1e1e1e"/><stop offset="0.71" stop-color="#0d0d0d"/><stop offset="0.84" stop-color="#030303"/><stop offset="1"/></linearGradient><linearGradient id="Dégradé_sans_nom_7" x1="-59.65" y1="293.2" x2="-57.76" y2="293.2" gradientTransform="matrix(0, 18.64, 18.64, 0, -5376.14, 1091.49)" gradientUnits="userSpaceOnUse"><stop offset="0" stop-color="#fff"/><stop offset="0.11" stop-color="#cbcbcb"/><stop offset="0.24" stop-color="#969696"/><stop offset="0.37" stop-color="#686868"/><stop offset="0.5" stop-color="#434343"/><stop offset="0.63" stop-color="#252525"/><stop offset="0.75" stop-color="#111"/><stop offset="0.88" stop-color="#040404"/><stop offset="1"/></linearGradient><linearGradient id="Dégradé_sans_nom_4" x1="-82.19" y1="320.97" x2="-80.3" y2="320.97" gradientTransform="matrix(0, 3.67, 3.67, 0, -1133.08, 382.21)" gradientUnits="userSpaceOnUse"><stop offset="0" stop-color="#fff"/><stop offset="1"/></linearGradient><linearGradient id="Dégradé_sans_nom_4-2" x1="-72.63" y1="307.4" x2="-70.74" y2="307.4" gradientTransform="matrix(0, 5.99, 5.99, 0, -1801.65, 488.85)" xlink:href="#Dégradé_sans_nom_4"/><linearGradient id="Dégradé_sans_nom_4-3" x1="-70.48" y1="311.73" x2="-68.59" y2="311.73" gradientTransform="matrix(0, 5.99, 5.99, 0, -1765.48, 475.86)" xlink:href="#Dégradé_sans_nom_4"/><linearGradient id="Dégradé_sans_nom_12" x1="-69.85" y1="288.72" x2="-67.96" y2="288.72" gradientTransform="matrix(-11.27, 0, 0, 11.27, -605.82, -3183.75)" gradientUnits="userSpaceOnUse"><stop offset="0" stop-color="#fff"/><stop offset="0.04" stop-color="#efefef"/><stop offset="0.25" stop-color="#a8a8a8"/><stop offset="0.45" stop-color="#6c6c6c"/><stop offset="0.63" stop-color="#3d3d3d"/><stop offset="0.78" stop-color="#1c1c1c"/><stop offset="0.91" stop-color="#070707"/><stop offset="1"/></linearGradient><clipPath id="clip-path" transform="translate(55.14 69.05)"><rect class="cls-7" x="3.74" y="3.73" width="172.47" height="139.53"/></clipPath><clipPath id="clip-path-2" transform="translate(55.14 69.05)"><rect class="cls-7" x="3.74" y="3.73" width="172.47" height="139.53"/></clipPath><mask id="mask" x="0" y="0" width="290.24" height="285.11" maskUnits="userSpaceOnUse"><g transform="translate(55.14 69.05)"><rect class="cls-1" x="-19.2" y="-29.17" width="218.34" height="205.34" transform="translate(-24.27 52.41) rotate(-28.79)"/></g></mask><linearGradient id="Dégradé_sans_nom_8" x1="-48.98" y1="279.31" x2="-47.09" y2="279.31" gradientTransform="matrix(0, -27.48, -27.48, 0, 7765.43, -1170.13)" gradientUnits="userSpaceOnUse"><stop offset="0" stop-color="#fff"/><stop offset="0.09" stop-color="#fff"/><stop offset="1" stop-color="#fff"/></linearGradient><clipPath id="clip-path-3" transform="translate(55.14 69.05)"><rect class="cls-7" x="3.74" y="3.73" width="172.47" height="59.88"/></clipPath><clipPath id="clip-path-4" transform="translate(55.14 69.05)"><rect class="cls-7" x="3.74" y="3.74" width="172.47" height="59.89"/></clipPath><mask id="mask-2" x="37.21" y="10.34" width="215.83" height="184.78" maskUnits="userSpaceOnUse"><g transform="translate(55.14 69.05)"><rect class="cls-2" x="-1.08" y="-27.81" width="182.11" height="122.98" transform="translate(-5.99 38.17) rotate(-23.2)"/></g></mask><linearGradient id="Dégradé_sans_nom_6" x1="-59.65" y1="293.2" x2="-57.76" y2="293.2" gradientTransform="matrix(0, 18.64, 18.64, 0, -5376.14, 1091.49)" gradientUnits="userSpaceOnUse"><stop offset="0" stop-color="#fff"/><stop offset="1" stop-color="#fff"/></linearGradient><clipPath id="clip-path-5" transform="translate(55.14 69.05)"><rect class="cls-7" x="40.78" y="83.64" width="8.36" height="7.93"/></clipPath><clipPath id="clip-path-6" transform="translate(55.14 69.05)"><rect class="cls-7" x="40.78" y="83.64" width="8.36" height="7.93"/></clipPath><mask id="mask-3" x="92.68" y="149.28" width="14.84" height="14.77" maskUnits="userSpaceOnUse"><g transform="translate(55.14 69.05)"><rect class="cls-3" x="39.42" y="82.16" width="11.07" height="10.89" transform="translate(-35.35 30.62) rotate(-27.47)"/></g></mask><linearGradient id="Dégradé_sans_nom_9" x1="-82.19" y1="320.97" x2="-80.3" y2="320.97" gradientTransform="matrix(0, 3.67, 3.67, 0, -1133.08, 382.21)" xlink:href="#Dégradé_sans_nom_6"/><clipPath id="clip-path-7" transform="translate(55.14 69.05)"><rect class="cls-7" x="6.8" y="51.84" width="63.83" height="40.18"/></clipPath><clipPath id="clip-path-8" transform="translate(55.14 69.05)"><path class="cls-7" d="M70.63,78,50.74,54.58a7.68,7.68,0,0,0-11.74,0L6.8,92H17.71l25.18-29.3a7.68,7.68,0,0,1,11.73,0Z"/></clipPath><mask id="mask-4" x="45.86" y="95.34" width="96" height="91.29" maskUnits="userSpaceOnUse"><g transform="translate(55.14 69.05)"><rect class="cls-4" x="1.18" y="39.68" width="75.06" height="64.51" transform="translate(-28.11 24.95) rotate(-26.6)"/></g></mask><linearGradient id="Dégradé_sans_nom_9-2" x1="-72.63" y1="307.4" x2="-70.74" y2="307.4" gradientTransform="matrix(0, 5.99, 5.99, 0, -1801.65, 488.85)" xlink:href="#Dégradé_sans_nom_6"/><clipPath id="clip-path-9" transform="translate(55.14 69.05)"><rect class="cls-7" x="68.45" y="51.84" width="63.83" height="40.18"/></clipPath><clipPath id="clip-path-10" transform="translate(55.14 69.05)"><path class="cls-7" d="M132.28,78l-19.9-23.45a7.67,7.67,0,0,0-11.73,0L68.45,92H79.36l25.18-29.3a7.68,7.68,0,0,1,11.73,0Z"/></clipPath><mask id="mask-5" x="107.53" y="95.37" width="95.97" height="91.24" maskUnits="userSpaceOnUse"><g transform="translate(55.14 69.05)"><rect class="cls-5" x="62.84" y="39.69" width="75.06" height="64.48" transform="translate(-21.57 52.48) rotate(-26.57)"/></g></mask><linearGradient id="Dégradé_sans_nom_9-3" x1="-70.48" y1="311.73" x2="-68.59" y2="311.73" gradientTransform="matrix(0, 5.99, 5.99, 0, -1765.48, 475.86)" xlink:href="#Dégradé_sans_nom_6"/><clipPath id="clip-path-11" transform="translate(55.14 69.05)"><path class="cls-7" d="M165.23,54.89a9.64,9.64,0,0,0-6.39,2.9L137.9,80.85l4,4.33s4.16,2.92,7.51-.42c0,0,19.76-23.3,25.39-29.87Z"/></clipPath><mask id="mask-6" x="180.81" y="110.34" width="61.39" height="60.41" maskUnits="userSpaceOnUse"><g transform="translate(55.14 69.05)"><rect class="cls-6" x="133.73" y="47.91" width="45.27" height="47.17" transform="translate(28.02 185.9) rotate(-66.28)"/></g></mask><linearGradient id="Dégradé_sans_nom_11" x1="-69.85" y1="288.72" x2="-67.96" y2="288.72" gradientTransform="matrix(-11.27, 0, 0, 11.27, -605.82, -3183.75)" xlink:href="#Dégradé_sans_nom_6"/></defs><title>AttijariwafaBankEurope_Logo_180x147</title><rect class="cls-8" x="55.3" y="69.2" width="179.65" height="146.72"/><g class="cls-9"><g class="cls-10"><g class="cls-11"><g class="cls-12"><rect class="cls-13" x="-19.2" y="-29.17" width="218.34" height="205.34" transform="translate(30.87 121.47) rotate(-28.79)"/></g></g></g></g><polygon class="cls-14" points="234.95 69.2 55.3 69.2 55.3 165.56 100.1 129.08 130.63 159.02 161.43 129.08 191.97 159.02 234.95 121.64 234.95 69.2"/><g class="cls-15"><g class="cls-16"><g class="cls-17"><g class="cls-18"><rect class="cls-19" x="-1.08" y="-27.81" width="182.11" height="122.98" transform="translate(49.15 107.22) rotate(-23.2)"/></g></g></g></g><rect class="cls-20" x="95.17" y="151.95" width="9.86" height="9.43"/><g class="cls-15"><g class="cls-21"><g class="cls-22"><g class="cls-23"><rect class="cls-24" x="39.42" y="82.16" width="11.07" height="10.89" transform="translate(19.8 99.68) rotate(-27.47)"/></g></g></g></g><path class="cls-20" d="M136.89,80,113.36,52.2a9.11,9.11,0,0,0-13.89,0S83.64,70.64,75.67,80C67.76,70.64,52.13,52.2,52.13,52.2a9.1,9.1,0,0,0-13.88,0L.15,96.5H14.68a13.41,13.41,0,0,0,9-4.14L45.16,67.21,68.7,94.93a9.12,9.12,0,0,0,6.92,3.25,9.27,9.27,0,0,0,7-3.2l23.79-27.77,23.54,27.72a9.07,9.07,0,0,0,13.87,0s28-33.08,36-42.39H166.19a13.75,13.75,0,0,0-9.06,4.11Z" transform="translate(55.14 69.05)"/><g class="cls-9"><g class="cls-25"><g class="cls-26"><g class="cls-27"><rect class="cls-28" x="1.18" y="39.68" width="75.06" height="64.51" transform="translate(27.03 94) rotate(-26.6)"/></g></g></g></g><g class="cls-9"><g class="cls-29"><g class="cls-30"><g class="cls-31"><rect class="cls-32" x="62.84" y="39.69" width="75.06" height="64.48" transform="translate(33.57 121.53) rotate(-26.57)"/></g></g></g></g><g class="cls-33"><g class="cls-34"><rect class="cls-35" x="133.73" y="47.91" width="45.27" height="47.17" transform="translate(83.16 254.95) rotate(-66.28)"/></g></g></svg>